# xmcd CD database file
#
# Track frame offsets:
#	150
#	20222
#	36178
#	55762
#	72629
#	101288
#	118257
#	140206
#	164342
#	180570
#	196218
#	215544
#	231265
#	260322
#	274319
#	294203
#	314863
#
# Disc length: 4424 seconds
#
# Revision: 0
# Processed by: cddbd v1.5.2PL0 Copyright (c) Steve Scherf et al.
# Submitted via: CDex 1.51
#
DISCID=0f114611
DTITLE=Paul Rodgers - Live In Glasgow
DYEAR=2007
DGENRE=Blues
TTITLE0=I'll Be Creepin'
TTITLE1=The Stealer
TTITLE2=Ride On A Pony
TTITLE3=Radioactive
TTITLE4=Be My Friend
TTITLE5=War Boys-A Prayer For Peace
TTITLE6=Feel Like Makin' Love
TTITLE7=Bad Company
TTITLE8=I Just Want To See You Smile
TTITLE9=Louisiana Blues
TTITLE10=Fire And Water
TTITLE11=Wishing Well
TTITLE12=All Right Now
TTITLE13=I'm A Mover
TTITLE14=The Hunter
TTITLE15=Can't Get Enough
TTITLE16=Seagull
EXTD=YEAR: 2007
EXTT0=
EXTT1=
EXTT2=
EXTT3=
EXTT4=
EXTT5=
EXTT6=
EXTT7=
EXTT8=
EXTT9=
EXTT10=
EXTT11=
EXTT12=
EXTT13=
EXTT14=
EXTT15=
EXTT16=
PLAYORDER=
